<svg width="14" height="18" viewBox="0 0 14 18" fill="none" xmlns="http://www.w3.org/2000/svg">
<path d="M6.99993 0.606934C8.84697 0.606934 10.6184 1.34067 11.9244 2.64673C13.2305 3.95278 13.9642 5.72418 13.9642 7.57122C13.9642 10.5141 11.8964 13.7212 7.81422 17.2269C7.58723 17.4219 7.29783 17.529 6.99859 17.5288C6.69936 17.5285 6.41014 17.4209 6.1835 17.2255L5.9135 16.9912C2.01207 13.5769 0.0356445 10.4484 0.0356445 7.57122C0.0356445 5.72418 0.76938 3.95278 2.07544 2.64673C3.38149 1.34067 5.15289 0.606934 6.99993 0.606934ZM6.99993 4.89265C6.28953 4.89265 5.60822 5.17485 5.10589 5.67718C4.60357 6.17951 4.32136 6.86082 4.32136 7.57122C4.32136 8.28162 4.60357 8.96293 5.10589 9.46526C5.60822 9.96759 6.28953 10.2498 6.99993 10.2498C7.71033 10.2498 8.39164 9.96759 8.89397 9.46526C9.3963 8.96293 9.6785 8.28162 9.6785 7.57122C9.6785 6.86082 9.3963 6.17951 8.89397 5.67718C8.39164 5.17485 7.71033 4.89265 6.99993 4.89265Z" fill="white"/>
</svg>
