<svg width="36" height="36" viewBox="0 0 36 36" fill="none" xmlns="http://www.w3.org/2000/svg">
<g clip-path="url(#clip0_41_196)">
<path d="M0 13H36V23H0V13Z" fill="#E00034"/>
<path d="M32 5H4C2.93913 5 1.92172 5.42143 1.17157 6.17157C0.421427 6.92172 0 7.93913 0 9L0 13H36V9C36 7.93913 35.5786 6.92172 34.8284 6.17157C34.0783 5.42143 33.0609 5 32 5Z" fill="#0098C3"/>
<path d="M17.844 21.3332C17.2886 21.3333 16.742 21.1945 16.2538 20.9296C15.7657 20.6647 15.3515 20.2819 15.0489 19.8162C14.7462 19.3505 14.5648 18.8165 14.5211 18.2628C14.4773 17.7091 14.5726 17.1533 14.7983 16.6458C15.024 16.1383 15.3729 15.6953 15.8134 15.357C16.2539 15.0186 16.7719 14.7958 17.3204 14.7086C17.869 14.6214 18.4306 14.6726 18.9543 14.8577C19.4779 15.0428 19.947 15.3558 20.319 15.7682C19.8405 15.057 19.1463 14.5184 18.3386 14.2316C17.5308 13.9447 16.6523 13.925 15.8325 14.1752C15.0127 14.4254 14.295 14.9323 13.785 15.6212C13.2751 16.3102 12.9999 17.1447 13.0001 18.0019C13.0003 18.859 13.2758 19.6934 13.7861 20.3821C14.2963 21.0709 15.0143 21.5775 15.8342 21.8273C16.6542 22.0771 17.5327 22.057 18.3403 21.7698C19.1479 21.4826 19.8419 20.9436 20.32 20.2322C20.0077 20.5793 19.6258 20.8567 19.1992 21.0464C18.7726 21.2361 18.3109 21.3338 17.844 21.3332Z" fill="white"/>
<path d="M23.667 17.9983L22.471 17.5743L23.015 16.4283L21.869 16.9733L21.443 15.7783L21.019 16.9743L21.016 16.9723L19.872 16.4303L20.418 17.5763L19.222 18.0023L20.418 18.4263L19.874 19.5723L21.015 19.0293L21.02 19.0273L21.446 20.2223L21.87 19.0263L23.017 19.5703L22.471 18.4243L23.667 17.9983Z" fill="white"/>
<path d="M4 31H32C33.0609 31 34.0783 30.5786 34.8284 29.8284C35.5786 29.0783 36 28.0609 36 27V23H0V27C0 28.0609 0.421427 29.0783 1.17157 29.8284C1.92172 30.5786 2.93913 31 4 31Z" fill="#00AE65"/>
</g>
<defs>
<clipPath id="clip0_41_196">
<rect width="36" height="36" fill="white"/>
</clipPath>
</defs>
</svg>
