<svg width="32" height="32" viewBox="0 0 32 32" fill="none" xmlns="http://www.w3.org/2000/svg">
<path d="M4 6.66668C4 5.9303 4.59695 5.33334 5.33333 5.33334H26.6667C27.403 5.33334 28 5.9303 28 6.66668V6.66668C28 7.40306 27.403 8.00001 26.6667 8.00001H5.33333C4.59695 8.00001 4 7.40306 4 6.66668V6.66668ZM4 16C4 15.2636 4.59695 14.6667 5.33333 14.6667H18.6667C19.403 14.6667 20 15.2636 20 16V16C20 16.7364 19.403 17.3333 18.6667 17.3333H5.33333C4.59695 17.3333 4 16.7364 4 16V16ZM4 25.3333C4 24.597 4.59695 24 5.33333 24H26.6667C27.403 24 28 24.597 28 25.3333V25.3333C28 26.0697 27.403 26.6667 26.6667 26.6667H5.33333C4.59695 26.6667 4 26.0697 4 25.3333V25.3333Z" fill="white"/>
</svg>
