<svg width="38" height="34" viewBox="0 0 38 34" fill="none" xmlns="http://www.w3.org/2000/svg">
<path d="M5.66663 8.66666C5.66663 7.01849 6.15537 5.40732 7.07105 4.03691C7.98672 2.6665 9.28821 1.5984 10.8109 0.967669C12.3336 0.336938 14.0092 0.171911 15.6257 0.493454C17.2422 0.814998 18.7271 1.60867 19.8925 2.77411C21.058 3.93955 21.8516 5.4244 22.1732 7.04091C22.4947 8.65742 22.3297 10.333 21.699 11.8557C21.0682 13.3784 20.0001 14.6799 18.6297 15.5956C17.2593 16.5113 15.6481 17 14 17C11.7898 17 9.67021 16.122 8.1074 14.5592C6.5446 12.9964 5.66663 10.8768 5.66663 8.66666ZM19 20.3333H8.99996C7.90561 20.3333 6.82198 20.5489 5.81093 20.9677C4.79988 21.3865 3.88122 22.0003 3.1074 22.7741C1.5446 24.3369 0.666626 26.4565 0.666626 28.6667V32C0.666626 32.442 0.842221 32.8659 1.15478 33.1785C1.46734 33.4911 1.89127 33.6667 2.33329 33.6667H25.6666C26.1087 33.6667 26.5326 33.4911 26.8451 33.1785C27.1577 32.8659 27.3333 32.442 27.3333 32V28.6667C27.3333 26.4565 26.4553 24.3369 24.8925 22.7741C23.3297 21.2113 21.2101 20.3333 19 20.3333ZM24 0.333331C22.7964 0.328013 21.6067 0.589864 20.5166 1.1C21.6031 2.03875 22.4746 3.20047 23.072 4.50614C23.6694 5.81181 23.9786 7.23082 23.9786 8.66666C23.9786 10.1025 23.6694 11.5215 23.072 12.8272C22.4746 14.1329 21.6031 15.2946 20.5166 16.2333C21.6067 16.7435 22.7964 17.0053 24 17C26.2101 17 28.3297 16.122 29.8925 14.5592C31.4553 12.9964 32.3333 10.8768 32.3333 8.66666C32.3333 6.45653 31.4553 4.33691 29.8925 2.77411C28.3297 1.21131 26.2101 0.333331 24 0.333331ZM29 20.3333H24.5166C25.8938 21.2442 27.0241 22.482 27.8064 23.9361C28.5887 25.3902 28.9988 27.0155 29 28.6667V32C28.9989 32.5854 28.8437 33.1603 28.55 33.6667H35.6666C36.1087 33.6667 36.5326 33.4911 36.8451 33.1785C37.1577 32.8659 37.3333 32.442 37.3333 32V28.6667C37.3333 27.5723 37.1177 26.4887 36.699 25.4776C36.2802 24.4666 35.6663 23.5479 34.8925 22.7741C34.1187 22.0003 33.2 21.3865 32.189 20.9677C31.1779 20.5489 30.0943 20.3333 29 20.3333Z" fill="white"/>
</svg>
