<svg width="36" height="36" viewBox="0 0 36 36" fill="none" xmlns="http://www.w3.org/2000/svg">
<g clip-path="url(#clip0_41_183)">
<path d="M32 5H4C2.93913 5 1.92172 5.42143 1.17157 6.17157C0.421427 6.92172 0 7.93913 0 9L0 13.5H36V9C36 7.93913 35.5786 6.92172 34.8284 6.17157C34.0783 5.42143 33.0609 5 32 5Z" fill="#CC0000"/>
<path d="M0 27C0 28.0609 0.421427 29.0783 1.17157 29.8284C1.92172 30.5786 2.93913 31 4 31H32C33.0609 31 34.0783 30.5786 34.8284 29.8284C35.5786 29.0783 36 28.0609 36 27V22.5H0V27Z" fill="#006600"/>
<path d="M0 13.5H36V22.5H0V13.5Z" fill="#EEEEEE"/>
<path d="M16.13 21.4551C15.722 21.5711 15.484 21.1831 15.484 21.1831L15.807 21.0381L15.963 20.5381L16.286 21.0031H16.65C16.651 21.0021 16.568 21.3301 16.13 21.4551ZM21.276 21.8921C20.651 21.7041 19.194 21.4541 18.088 21.4541C16.984 21.4541 15.526 21.7041 14.9 21.8921C14.274 22.0801 14.421 22.6831 14.9 22.4951C15.379 22.3071 16.546 22.1201 18.088 22.1201C19.63 22.1201 20.797 22.3081 21.276 22.4951C21.756 22.6831 21.901 22.0801 21.276 21.8921ZM18.339 20.7671L18.089 20.3501L17.839 20.7671L17.401 20.9551C17.401 20.9551 17.713 21.3081 18.089 21.3081C18.465 21.3081 18.777 20.9551 18.777 20.9551L18.339 20.7671ZM20.048 21.4551C20.456 21.5711 20.694 21.1831 20.694 21.1831L20.371 21.0381L20.215 20.5381L19.893 21.0031H19.528C19.526 21.0021 19.61 21.3301 20.048 21.4551Z" fill="#FFAC33"/>
<path d="M22.443 20.2002C22.339 19.9332 22.081 20.6482 21.381 20.5382C20.589 20.4132 20.423 19.6212 20.423 19.6212C20.423 19.6212 19.798 20.2472 19.152 19.9552C18.506 19.6632 18.34 19.2472 18.34 18.7882C18.34 18.3292 18.281 17.9922 18.34 17.8092C18.434 17.5172 18.778 17.3082 19.132 17.6422C19.424 17.2262 18.924 16.3512 18.09 16.3512C17.257 16.3512 16.757 17.2262 17.048 17.6422C17.402 17.3092 17.746 17.5172 17.84 17.8092C17.899 17.9922 17.84 18.3292 17.84 18.7882C17.84 19.2472 17.673 19.6632 17.028 19.9552C16.383 20.2472 15.757 19.6212 15.757 19.6212C15.757 19.6212 15.59 20.4132 14.799 20.5382C14.099 20.6482 13.841 19.9332 13.737 20.2002C13.633 20.4672 14.195 21.2672 14.987 21.0082C15.779 20.7482 15.883 20.0802 15.883 20.0802C15.883 20.0802 16.29 20.8292 17.237 20.5382C17.951 20.3182 18.091 19.6422 18.091 19.6422C18.091 19.6422 18.232 20.3182 18.945 20.5382C19.893 20.8292 20.299 20.0802 20.299 20.0802C20.299 20.0802 20.403 20.7482 21.195 21.0082C21.985 21.2672 22.548 20.4662 22.443 20.2002ZM17.401 17.1002C17.608 16.6602 18.089 16.7252 18.089 16.7252C18.089 16.7252 18.569 16.6602 18.777 17.1002C18.423 17.1412 18.089 17.4122 18.089 17.4122C18.089 17.4122 17.755 17.1422 17.401 17.1002ZM13.339 18.0942L13.536 18.7042H14.177L13.659 19.0812L13.857 19.6892L13.339 19.3122L12.821 19.6892L13.018 19.0812L12.5 18.7042H13.141L13.339 18.0942ZM13.964 15.8652L14.161 16.4752H14.802L14.284 16.8522L14.482 17.4602L13.964 17.0832L13.446 17.4602L13.643 16.8522L13.125 16.4752H13.766L13.964 15.8652ZM15.64 14.0732L15.838 14.6832H16.479L15.961 15.0602L16.158 15.6682L15.64 15.2912L15.122 15.6682L15.32 15.0602L14.802 14.6832H15.443L15.64 14.0732ZM18.089 13.4692L18.286 14.0782H18.927L18.409 14.4552L18.607 15.0632L18.089 14.6862L17.571 15.0632L17.768 14.4552L17.25 14.0782H17.891L18.089 13.4692ZM22.661 18.0942L22.464 18.7042H21.823L22.341 19.0812L22.143 19.6892L22.661 19.3122L23.179 19.6892L22.981 19.0812L23.5 18.7042H22.859L22.661 18.0942ZM22.036 15.8652L21.839 16.4752H21.198L21.716 16.8522L21.518 17.4602L22.036 17.0832L22.554 17.4602L22.356 16.8522L22.875 16.4752H22.234L22.036 15.8652ZM20.36 14.0732L20.162 14.6832H19.521L20.04 15.0602L19.842 15.6682L20.36 15.2912L20.878 15.6682L20.68 15.0602L21.198 14.6832H20.557L20.36 14.0732Z" fill="#FFAC33"/>
</g>
<defs>
<clipPath id="clip0_41_183">
<rect width="36" height="36" fill="white"/>
</clipPath>
</defs>
</svg>
