<svg width="61" height="62" viewBox="0 0 61 62" fill="none" xmlns="http://www.w3.org/2000/svg">
<path d="M59.7078 15.4225C53.625 18.8411 50.6598 23.9336 50.7978 30.6959C50.9343 37.4525 54.1223 42.374 60.3632 45.4229C54.7346 56.0611 41.9841 63.9384 26.8793 61.5819C11.7256 59.2184 0.605014 47.0064 0.0243352 32.2669C-0.567842 17.2465 9.60266 4.65352 23.7775 1.06249C38.8723 -2.76212 52.9739 4.14052 59.7078 15.4225ZM26.2109 18.1224C26.6853 18.9412 27.2056 19.6183 27.4945 20.3774C29.4449 25.4907 31.3609 30.6166 33.2567 35.7481C34.0832 37.985 35.2876 39.8994 37.6607 40.8587C38.891 41.3564 40.1558 41.7734 41.4969 42.26C44.3341 34.1687 47.1412 26.165 49.9526 18.1446H43.6026C43.5954 18.2725 43.5767 18.3267 43.5954 18.3601C43.6284 18.4185 43.6744 18.4797 43.7319 18.5158C45.0686 19.3486 45.0873 20.5303 44.6662 21.8232C44.2493 23.1009 43.8282 24.3785 43.397 25.652C42.3348 28.7801 41.2655 31.9054 40.1472 35.1836C39.7304 34.0297 39.3409 33.0176 38.9959 31.9902C37.4422 27.3662 35.5205 22.8562 34.2916 18.1237H26.2095L26.2109 18.1224ZM14.7627 48.7192C14.9423 48.7192 15.1709 48.7303 15.3979 48.7164C15.6107 48.7039 15.8263 48.6789 16.0347 48.6358C18.3459 48.1589 20.3682 47.094 22.2324 45.7329C23.2845 44.9655 23.9457 43.927 24.1153 42.6521C24.2217 41.8513 24.2777 41.0394 24.2792 40.233C24.2921 34.0742 24.2864 27.9153 24.2892 21.7579C24.2892 20.4191 24.4358 19.1261 25.7309 18.1752H15.8838C17.2478 19.1845 17.4318 20.4218 17.4275 21.7551C17.4045 28.3992 17.4332 35.0446 17.3714 41.6886C17.3613 42.7272 17.1069 43.8116 16.7246 44.7861C16.1985 46.1277 15.4425 47.3845 14.7641 48.7206L14.7627 48.7192Z" fill="#1880BC"/>
</svg>
