<svg width="160" height="62" viewBox="0 0 160 62" fill="none" xmlns="http://www.w3.org/2000/svg">
<g clip-path="url(#clip0_93_577)">
<path d="M59.7078 15.4225C53.625 18.8411 50.6598 23.9336 50.7978 30.6959C50.9343 37.4525 54.1223 42.374 60.3632 45.4229C54.7346 56.0611 41.9841 63.9384 26.8793 61.5819C11.7256 59.2184 0.605014 47.0064 0.0243352 32.2669C-0.567842 17.2465 9.60266 4.65352 23.7775 1.06249C38.8723 -2.76212 52.9739 4.14052 59.7078 15.4225ZM26.2109 18.1224C26.6853 18.9412 27.2056 19.6183 27.4945 20.3774C29.4449 25.4907 31.3609 30.6166 33.2567 35.7481C34.0832 37.985 35.2876 39.8994 37.6607 40.8587C38.891 41.3564 40.1558 41.7734 41.4969 42.26C44.3341 34.1687 47.1412 26.165 49.9526 18.1446H43.6026C43.5954 18.2725 43.5767 18.3267 43.5954 18.3601C43.6284 18.4185 43.6744 18.4797 43.7319 18.5158C45.0686 19.3486 45.0873 20.5303 44.6662 21.8232C44.2493 23.1009 43.8282 24.3785 43.397 25.652C42.3348 28.7801 41.2655 31.9054 40.1472 35.1836C39.7304 34.0297 39.3409 33.0176 38.9959 31.9902C37.4422 27.3662 35.5205 22.8562 34.2916 18.1237H26.2095L26.2109 18.1224ZM14.7627 48.7192C14.9423 48.7192 15.1709 48.7303 15.3979 48.7164C15.6107 48.7039 15.8263 48.6789 16.0347 48.6358C18.3459 48.1589 20.3682 47.094 22.2324 45.7329C23.2845 44.9655 23.9457 43.927 24.1153 42.6521C24.2217 41.8513 24.2777 41.0394 24.2792 40.233C24.2921 34.0742 24.2864 27.9153 24.2892 21.7579C24.2892 20.4191 24.4358 19.1261 25.7309 18.1752H15.8838C17.2478 19.1845 17.4318 20.4218 17.4275 21.7551C17.4045 28.3992 17.4332 35.0446 17.3714 41.6886C17.3613 42.7272 17.1069 43.8116 16.7246 44.7861C16.1985 46.1277 15.4425 47.3845 14.7641 48.7206L14.7627 48.7192Z" fill="#1880BC"/>
<path d="M146.747 24.8773C146.801 25.5627 146.851 26.2064 146.903 26.8515C146.953 26.8598 147.021 26.8862 147.031 26.8709C149.39 23.7526 155.674 24.0835 158.297 27.7649C159.389 29.2983 159.934 30.9764 159.99 32.8379C160.053 34.9553 159.83 36.999 158.745 38.8869C156.696 42.4543 153.419 43.4011 149.467 42.9534C149.309 42.9354 149.088 42.8047 149.03 42.6726C148.593 41.6536 148.19 40.6206 147.757 39.5473C148.398 39.5473 148.95 39.589 149.493 39.539C150.853 39.4152 151.875 38.7479 152.302 37.4883C153.078 35.2014 153.062 32.8741 152.194 30.6163C151.961 30.0115 151.434 29.3929 150.867 29.0536C149.279 28.0999 147.393 28.998 147.058 30.7984C146.941 31.4324 146.9 32.0872 146.899 32.7323C146.885 37.7122 146.899 42.6935 146.882 47.6734C146.879 48.6758 147.37 49.4321 148.149 50.2676H139.203C139.456 49.6642 139.813 48.9566 140.043 48.2114C140.184 47.7582 140.161 47.248 140.161 46.7642C140.168 40.8569 140.165 34.9511 140.165 29.0439C140.165 27.7398 140.191 26.4288 138.876 25.4404C141.582 25.1526 144.192 25.7101 146.747 24.8759V24.8773Z" fill="#1880BC"/>
<path d="M70.863 29.8266H78.7122C78.7237 29.9809 78.7467 30.1366 78.7481 30.291C78.7496 33.9515 78.7496 37.6121 78.7481 41.2726C78.7481 41.5882 78.8243 41.9121 78.3471 42.0317C74.2177 43.0619 70.0494 43.5513 65.8453 42.5739C62.0407 41.6897 58.8671 39.7628 57.2328 36.2399C55.0251 31.4824 55.2019 26.718 58.5207 22.4332C60.8736 19.3955 64.2412 17.8787 68.1234 17.4491C70.6934 17.1641 73.236 17.3185 75.7513 17.9135C76.1983 18.0191 76.378 18.1874 76.3694 18.6545C76.3392 20.1713 76.3579 21.6894 76.3579 23.2159C75.3891 22.746 74.531 22.2414 73.6068 21.9007C71.4954 21.125 69.3351 21.0499 67.2237 21.8938C64.9441 22.8058 63.833 24.6507 63.4579 26.8807C62.9491 29.9045 63.1632 32.8935 64.5962 35.6935C65.9775 38.3934 68.9283 39.7114 72.0128 39.0093C72.0128 38.6005 72.0128 38.1682 72.0128 37.7358C72.0128 36.3219 72.0085 34.9094 72.0128 33.4955C72.0171 32.1873 72.056 30.8693 70.7077 29.9865C70.7595 29.9323 70.8098 29.8794 70.8615 29.8252L70.863 29.8266Z" fill="#1880BC"/>
<path d="M135.798 24.8843C135.798 26.0632 135.793 27.2143 135.798 28.3655C135.817 31.8147 135.834 35.2653 135.866 38.7146C135.872 39.3388 135.847 39.9852 136.01 40.5789C136.185 41.2212 136.562 41.812 136.876 42.4822H129.146V40.9042C128.34 41.4575 127.647 42.1332 126.808 42.4683C124.398 43.4303 122.013 43.3789 119.768 41.9094C118.252 40.9181 117.948 39.4152 117.921 37.8303C117.871 34.8899 117.888 31.9495 117.881 29.0092C117.876 27.1643 117.822 26.9933 116.699 25.4974C119.289 25.1526 121.924 25.717 124.582 24.8439C124.582 27.1837 124.579 29.4707 124.582 31.7591C124.584 33.148 124.586 34.5382 124.613 35.9271C124.623 36.4331 124.672 36.9434 124.764 37.4411C124.985 38.6367 125.642 39.1998 126.779 39.2234C127.907 39.247 128.789 38.57 129.021 37.4591C129.098 37.1005 129.106 36.7237 129.106 36.3539C129.113 33.8306 129.089 31.3059 129.119 28.7825C129.134 27.5591 128.996 26.4191 127.843 25.5043C130.512 25.1748 133.125 25.6725 135.794 24.8829L135.798 24.8843Z" fill="#1880BC"/>
<path d="M104.133 43.0827C101.1 43.0758 98.4236 42.2333 96.374 39.9547C94.6463 38.0333 94.1562 35.731 94.333 33.2772C94.5802 29.8391 96.2346 27.2435 99.5232 25.7796C101.857 24.7397 104.331 24.6201 106.838 25.0525C110.509 25.685 112.988 27.7384 113.987 31.1849C115.003 34.6911 114.384 37.9471 111.542 40.5664C109.741 42.2263 107.14 43.0744 104.133 43.0855V43.0827ZM108.011 34.4604C107.825 32.9756 107.735 31.5227 107.02 30.1895C106.405 29.0411 105.455 28.4086 104.084 28.4572C102.638 28.5087 101.74 29.2677 101.265 30.5412C100.567 32.4167 100.728 34.3311 101.124 36.2218C101.281 36.9726 101.622 37.7247 102.044 38.3767C102.726 39.4305 103.839 39.6863 105.061 39.5445C106.228 39.4097 107.027 38.7493 107.347 37.701C107.667 36.6486 107.796 35.5434 108.011 34.4604Z" fill="#1880BC"/>
<path d="M87.9441 24.862C88.003 25.6197 88.0605 26.3565 88.1281 27.2407C89.3297 24.8634 91.3304 24.5409 93.6732 24.8801V29.4874C93.1788 29.3873 92.6872 29.1801 92.2144 29.2163C91.352 29.283 90.4364 29.3498 89.6602 29.6779C88.6196 30.1172 88.0648 30.9625 88.0993 32.1762C88.1654 34.4909 88.1151 36.8071 88.1194 39.1233C88.1237 40.8917 88.1697 41.0154 89.2722 42.4821H80.2156C81.5609 41.2226 81.3784 39.5723 81.3827 37.968C81.3899 34.8872 81.3913 31.8077 81.3813 28.7269C81.3769 27.5327 81.3381 26.3371 80.1265 25.432C82.7826 25.1261 85.3899 25.7281 87.9441 24.8606V24.862Z" fill="#1880BC"/>
</g>
<defs>
<clipPath id="clip0_93_577">
<rect width="160" height="62" fill="white"/>
</clipPath>
</defs>
</svg>
