<svg width="13" height="18" viewBox="0 0 13 18" fill="none" xmlns="http://www.w3.org/2000/svg">
<path d="M2.4767 1.03267L3.3742 0.746C4.2142 0.477667 5.11253 0.911834 5.47254 1.76017L6.1892 3.45017C6.5017 4.186 6.32837 5.05183 5.76087 5.59017L4.18337 7.0885C4.28087 7.98517 4.5817 8.86767 5.0867 9.736C5.56656 10.5762 6.21009 11.3115 6.9792 11.8985L8.87587 11.2652C9.5942 11.026 10.3767 11.3018 10.8175 11.9493L11.8442 13.4577C12.3575 14.211 12.265 15.2493 11.6292 15.8877L10.9475 16.5718C10.2692 17.2527 9.30087 17.5002 8.4042 17.2202C6.28837 16.5602 4.34337 14.601 2.56837 11.3427C0.790869 8.07933 0.164202 5.30933 0.686702 3.036C0.906702 2.07933 1.58837 1.31683 2.47837 1.03267H2.4767Z" fill="white"/>
</svg>
