<svg width="10" height="15" viewBox="0 0 10 15" fill="none" xmlns="http://www.w3.org/2000/svg">
<path d="M2.18134 1.12604L2.89934 0.896703C3.57134 0.682036 4.29 1.02937 4.578 1.70804L5.15134 3.06004C5.40134 3.6487 5.26267 4.34137 4.80867 4.77204L3.54667 5.9707C3.62467 6.68804 3.86534 7.39404 4.26934 8.0887C4.65322 8.76082 5.16805 9.3491 5.78334 9.8187L7.30067 9.31204C7.87534 9.1207 8.50134 9.34137 8.854 9.85937L9.67534 11.066C10.086 11.6687 10.012 12.4994 9.50334 13.01L8.958 13.5574C8.41534 14.102 7.64067 14.3 6.92334 14.076C5.23067 13.548 3.67467 11.9807 2.25467 9.37404C0.832671 6.76337 0.331337 4.54737 0.749337 2.7287C0.925337 1.96337 1.47067 1.35337 2.18267 1.12604H2.18134Z" fill="#1B81BF"/>
</svg>
