<svg width="36" height="40" viewBox="0 0 36 40" fill="none" xmlns="http://www.w3.org/2000/svg">
<path d="M34.9331 33.9868C34.9331 33.9868 30.4935 26.3565 29.6971 24.988C30.6032 24.7116 31.5684 24.4675 31.9694 23.775C32.6378 22.6212 31.4481 20.7285 31.7605 19.4917C32.0823 18.2189 33.982 17.1175 33.982 15.8237C33.982 14.5632 32.018 13.0906 31.6959 11.8252C31.3814 10.5887 32.5675 8.69387 31.897 7.54145C31.2265 6.38893 28.9931 6.48362 28.0737 5.59896C27.1278 4.68857 27.1307 2.46114 25.9898 1.85104C24.8442 1.23868 22.9823 2.47627 21.7103 2.18312C20.4528 1.89331 19.3294 0 18.0159 0C16.683 0 14.5629 2.14766 14.2304 2.22495C12.9591 2.52048 11.0948 1.28591 9.95041 1.90088C8.81053 2.51303 8.81756 4.74068 7.87333 5.65258C6.95549 6.53886 4.722 6.44828 4.05353 7.6021C3.38517 8.7557 4.57488 10.648 4.26259 11.8854C3.94943 13.1259 1.98359 14.3829 1.98359 15.8175C1.98359 17.1114 3.88804 18.2094 4.21178 19.4816C4.52645 20.7181 3.34031 22.6127 4.01083 23.7655C4.37587 24.393 5.20411 24.6506 6.03126 24.8983C6.12779 24.9271 6.31037 25.0351 6.18671 25.2153C5.62082 26.1921 1.06618 34.0527 1.06618 34.0527C0.703839 34.678 0.998078 35.2139 1.71984 35.2443L5.25275 35.3916C5.97451 35.422 6.87993 35.9465 7.26518 36.5576L9.15039 39.549C9.53564 40.1601 10.1469 40.1486 10.5092 39.5235C10.5092 39.5235 15.7839 30.4168 15.7861 30.4142C15.8919 30.2906 15.9983 30.316 16.0492 30.3592C16.6263 30.8506 17.4309 31.3408 18.1024 31.3408C18.7609 31.3408 19.3707 30.8794 19.9739 30.3647C20.0229 30.3229 20.1424 30.2372 20.2297 30.4151C20.2311 30.4179 25.5001 39.4748 25.5001 39.4748C25.8633 40.0991 26.4747 40.1097 26.8587 39.4979L28.7386 36.5029C29.1228 35.8914 30.0273 35.3648 30.749 35.3334L34.2816 35.1794C35.003 35.1478 35.2963 34.6111 34.9331 33.9868ZM23.8545 25.7952C19.9484 28.0677 15.2597 27.8241 11.6784 25.5652C6.4309 22.204 4.70427 15.2508 7.85885 9.80607C11.0494 4.29856 18.063 2.3552 23.6202 5.3818C23.6494 5.39769 23.6782 5.41412 23.7072 5.43033C23.7484 5.45314 23.7895 5.47627 23.8304 5.49962C25.5448 6.48805 27.0315 7.9226 28.096 9.75235C31.3495 15.3448 29.4469 22.5417 23.8545 25.7952Z" fill="white"/>
<path d="M22.9613 7.14549C22.945 7.13608 22.9286 7.12733 22.9124 7.11803C19.9439 5.39994 16.1603 5.27434 12.9893 7.11922C8.2836 9.85687 6.68237 15.9123 9.42002 20.6179C10.2554 22.0538 11.4001 23.2001 12.7209 24.0227C12.8332 24.0938 12.9468 24.1638 13.0629 24.231C17.7736 26.9601 23.8258 25.348 26.5548 20.6374C29.2837 15.9267 27.672 9.8746 22.9613 7.14549ZM24.1397 14.8464L22.4903 16.4541C21.9794 16.952 21.6601 17.9348 21.7808 18.638L22.1702 20.9081C22.2908 21.6113 21.8729 21.9149 21.2414 21.583L19.2026 20.5111C18.5711 20.1791 17.5378 20.1791 16.9063 20.5111L14.8677 21.583C14.2362 21.9149 13.8181 21.6113 13.9388 20.9081L14.3281 18.638C14.4488 17.9348 14.1295 16.952 13.6186 16.4541L11.9693 14.8464C11.4583 14.3485 11.6181 13.8571 12.324 13.7544L14.6034 13.4232C15.3093 13.3206 16.1454 12.7132 16.4611 12.0735L17.4804 10.0081C17.7962 9.36838 18.3129 9.36838 18.6285 10.0081L19.648 12.0735C19.9637 12.7132 20.7997 13.3206 21.5057 13.4232L23.7851 13.7544C24.4909 13.8571 24.6506 14.3485 24.1397 14.8464Z" fill="white"/>
</svg>
