<svg width="38" height="28" viewBox="0 0 38 28" fill="none" xmlns="http://www.w3.org/2000/svg">
<path d="M35.7341 16.7141C35.297 16.0029 34.4082 15.6918 33.623 15.9881C19.9045 20.2844 20.097 20.5659 18.7267 20.3807L16.1859 20.0474C15.8822 20.0029 15.6674 19.7215 15.7119 19.4178C15.7489 19.114 16.0304 18.8992 16.3341 18.9437L18.8748 19.2844C20.2082 19.4622 21.4526 18.5659 21.697 17.2326C21.8452 16.4326 21.3193 15.5437 20.5415 15.2918L16.3489 13.9289C15.9119 13.7881 15.4452 13.7659 14.9933 13.877L9.60815 15.2103V24.8622L19.8748 27.7955C20.823 28.0622 21.8304 27.9066 22.6526 27.3659L35.1193 19.1511C36.0082 18.6178 36.2304 17.5289 35.7341 16.7141Z" fill="white"/>
<path d="M7.91193 12.877H1.57859C1.25267 12.877 0.993408 13.1363 0.993408 13.4622V26.7289C0.993408 27.0474 1.25267 27.3066 1.57859 27.3066H7.91193C8.23045 27.3066 8.49711 27.0474 8.49711 26.7289V13.4622C8.49711 13.1363 8.23045 12.877 7.91193 12.877ZM4.51193 24.6103C3.74156 24.6103 3.12674 23.9807 3.12674 23.2252C3.12674 22.4548 3.74156 21.8326 4.51193 21.8326C5.26748 21.8326 5.89711 22.4548 5.89711 23.2252C5.89711 23.9807 5.26748 24.6103 4.51193 24.6103Z" fill="white"/>
<path d="M24.5305 3.61777L25.9008 6.39481L28.9653 6.84C29.226 6.87777 29.3297 7.19777 29.1416 7.38148L26.9245 9.54296L27.4482 12.5948C27.4927 12.8541 27.2208 13.0518 26.9875 12.9296L24.2468 11.4889L21.506 12.9296C21.2734 13.0518 21.0008 12.8541 21.0453 12.5948L21.569 9.54296L19.3519 7.38148C19.1638 7.19777 19.2675 6.87777 19.5282 6.84L22.5927 6.39481L23.9631 3.61777C24.0779 3.38148 24.4142 3.38148 24.5305 3.61777Z" fill="white"/>
<path d="M33.346 0.214072L34.4119 2.37333L36.7949 2.71926C36.9971 2.74889 37.0786 2.99778 36.9319 3.14074L35.2075 4.82148L35.6149 7.19481C35.6497 7.39629 35.4378 7.55037 35.2564 7.45481L33.1253 6.33407L30.9941 7.45481C30.8127 7.55037 30.6016 7.39629 30.6356 7.19481L31.043 4.82148L29.3186 3.14074C29.1719 2.99778 29.2527 2.74889 29.4556 2.71926L31.8386 2.37333L32.9045 0.214072C32.9941 0.030368 33.2556 0.030368 33.346 0.214072Z" fill="white"/>
<path d="M15.5882 0.214072L16.6541 2.37333L19.0371 2.71926C19.2393 2.74889 19.3208 2.99778 19.1741 3.14074L17.4497 4.82148L17.8571 7.19481C17.8919 7.39629 17.68 7.55037 17.4986 7.45481L15.3674 6.33407L13.2363 7.45481C13.0549 7.55037 12.8437 7.39629 12.8778 7.19481L13.2852 4.82148L11.5608 3.14074C11.4141 2.99778 11.4949 2.74889 11.6978 2.71926L14.0808 2.37333L15.1467 0.214072C15.2363 0.030368 15.4978 0.030368 15.5882 0.214072Z" fill="white"/>
</svg>
