<svg width="38" height="38" viewBox="0 0 38 38" fill="none" xmlns="http://www.w3.org/2000/svg">
<path fill-rule="evenodd" clip-rule="evenodd" d="M36.2405 21.7598C32.6065 21.7598 30.7833 26.1622 33.3526 28.7315C33.8261 29.2048 33.8261 29.9725 33.3526 30.4457L30.7431 33.0553C30.2698 33.5287 29.5022 33.5287 29.0289 33.0553C27.6008 31.6272 25.6067 31.5566 24.1168 32.3993V27.5227C27.1308 25.7531 29.1547 22.4785 29.1547 18.7307C29.1547 13.1036 24.5931 8.54203 18.966 8.54203C13.339 8.54203 8.77733 13.1037 8.77733 18.7307C8.77733 22.5067 10.8315 25.8029 13.8833 27.5629V32.3958C12.394 31.5538 10.4006 31.6257 8.97108 33.0553C8.4978 33.5287 7.73014 33.5287 7.25686 33.0553L4.64733 30.4457C4.17397 29.9725 4.17397 29.2048 4.64733 28.7315C7.2167 26.1621 5.39334 21.7598 1.75959 21.7598C1.08991 21.7598 0.547485 21.217 0.547485 20.5477V16.8574C0.547485 16.188 1.08991 15.6452 1.75959 15.6452C5.39334 15.6452 7.2167 11.243 4.64733 8.67367C4.17397 8.20039 4.17397 7.43273 4.64733 6.95945L7.25686 4.34984C7.73022 3.87648 8.49788 3.87648 8.97108 4.34984C11.5405 6.91922 15.9428 5.09602 15.9428 1.46211C15.9428 0.7925 16.4856 0.25 17.1549 0.25H20.8452C21.5145 0.25 22.0573 0.7925 22.0573 1.46211C22.0573 5.09602 26.4596 6.91922 29.029 4.34984C29.5023 3.87648 30.2698 3.87648 30.7432 4.34984L33.3527 6.95945C33.8262 7.43273 33.8262 8.20039 33.3527 8.67367C30.7834 11.243 32.6065 15.6452 36.2405 15.6452C36.9102 15.6452 37.4526 16.188 37.4526 16.8574V20.5477C37.4526 21.217 36.9101 21.7598 36.2405 21.7598ZM15.0903 12.0351C12.7915 13.3803 11.2473 15.8749 11.2473 18.7307C11.2473 22.0484 13.3315 24.879 16.2618 25.9855V37.75H21.7383V25.9855C24.6686 24.8789 26.7528 22.0484 26.7528 18.7307C26.7528 15.875 25.2085 13.3803 22.9098 12.0351V19.487L19 21.7443L15.0903 19.487V12.0351Z" fill="white"/>
</svg>
